# File created by Blade
# Date/Time:  Thu Jan 22 19:18:16 2015
# Frame Rate: 120.000 fps
#------------------------------------------------------
:FULLY-SPECIFIED
:DEGREES
1509
root 1.025183 32.328186 -0.577220 9.338573 -4.016488 0.992473
RightUpLeg -2.280169 -14.582115 -10.313227
RightLeg -3.210966 -0.000000 0.000000
RightFoot -7.614384 -2.972927 11.286200
RightToeBase 7.042916 -0.000000 -0.000000
LeftUpLeg -1.480871 13.897449 13.446999
LeftLeg 0.060395 -0.000000 -0.000000
LeftFoot -8.464034 3.487259 -26.897696
LeftToeBase 9.199688 -0.000000 -0.000000
Spine -9.443209 -1.631899 0.945639
RightShoulder -22.012032 -13.999373 -27.981200
RightArm 20.566393 28.758599 36.172321
RightForeArm -17.700384 -0.000000 7.843291
RightHand 10.914464 0.000000 10.937872
RightHandThumb1 -24.326973 -0.000000 -32.862282
LeftShoulder -26.676499 8.478987 30.524536
LeftArm 15.731339 -25.128845 -32.327855
LeftForeArm 27.242707 -0.000000 -0.974248
LeftHand -3.502701 0.000000 -7.752288
LeftHandThumb1 -26.253704 0.000000 33.147579
Head -3.925175 4.622606 -1.312010
1510
root 1.023884 32.328094 -0.580028 9.312119 -3.964663 0.990719
RightUpLeg -2.239881 -14.580935 -10.313105
RightLeg -3.207923 -0.000000 0.000000
RightFoot -7.598999 -3.054961 11.193142
RightToeBase 6.907065 -0.000000 -0.000000
LeftUpLeg -1.476924 13.861942 13.461525
LeftLeg 0.055396 -0.000000 -0.000000
LeftFoot -8.445530 3.468864 -26.899192
LeftToeBase 9.208388 -0.000000 -0.000000
Spine -9.435329 -1.670363 0.951670
RightShoulder -22.022066 -14.009017 -27.975032
RightArm 20.587986 28.776725 36.133906
RightForeArm -17.687988 -0.000000 7.866486
RightHand 10.795148 -0.000000 10.886094
RightHandThumb1 -24.326973 -0.000000 -32.862282
LeftShoulder -26.683499 8.499692 30.526922
LeftArm 15.767608 -25.143444 -32.260741
LeftForeArm 27.256533 -0.000000 -0.943211
LeftHand -3.456550 0.000000 -7.764581
LeftHandThumb1 -26.253704 0.000000 33.147579
Head -3.948126 4.611153 -1.301818
1511
root 1.022692 32.327627 -0.583375 9.287959 -3.914673 0.987884
RightUpLeg -2.205019 -14.569726 -10.310383
RightLeg -3.209863 -0.000000 0.000000
RightFoot -7.647612 -3.080402 11.290341
RightToeBase 7.049070 -0.000000 -0.000000
LeftUpLeg -1.476590 13.827467 13.474756
LeftLeg 0.052859 -0.000000 -0.000000
LeftFoot -8.436685 3.462359 -26.876168
LeftToeBase 9.194252 -0.000000 -0.000000
Spine -9.430205 -1.689933 0.953431
RightShoulder -22.027195 -14.032337 -27.987125
RightArm 20.559207 28.836371 36.130839
RightForeArm -17.701240 -0.000000 7.944855
RightHand 10.773554 0.000000 10.975630
RightHandThumb1 -24.326973 -0.000000 -32.862282
LeftShoulder -26.665764 8.498542 30.545010
LeftArm 15.795791 -25.198019 -32.203461
LeftForeArm 27.282952 -0.000000 -0.925291
LeftHand -3.401948 -0.000000 -7.673214
LeftHandThumb1 -26.253704 0.000000 33.147579
Head -3.961563 4.565352 -1.283818
1512
root 1.022161 32.327103 -0.587255 9.275053 -3.864850 0.985357
RightUpLeg -2.190225 -14.540580 -10.307227
RightLeg -3.191392 -0.000000 0.000000
RightFoot -7.673909 -3.166089 11.222211
RightToeBase 7.045440 -0.000000 -0.000000
LeftUpLeg -1.485752 13.782161 13.482245
LeftLeg 0.048899 -0.000000 -0.000000
LeftFoot -8.443340 3.452949 -26.921828
LeftToeBase 9.226903 -0.000000 -0.000000
Spine -9.432064 -1.710648 0.956672
RightShoulder -22.045907 -14.038521 -27.998787
RightArm 20.564117 28.871220 36.129835
RightForeArm -17.728691 -0.000000 7.966220
RightHand 10.769848 0.000000 11.019946
RightHandThumb1 -24.326973 -0.000000 -32.862282
LeftShoulder -26.648478 8.462825 30.576121
LeftArm 15.844809 -25.126484 -32.115397
LeftForeArm 27.230616 -0.000000 -1.039871
LeftHand -3.344187 0.000000 -7.596609
LeftHandThumb1 -26.253704 0.000000 33.147579
Head -3.987157 4.525094 -1.264001
1513
root 1.020825 32.327127 -0.591230 9.250010 -3.810813 0.982389
RightUpLeg -2.157152 -14.539335 -10.305182
RightLeg -3.181685 -0.000000 0.000000
RightFoot -7.689426 -3.204370 11.277163
RightToeBase 7.044445 -0.000000 -0.000000
LeftUpLeg -1.487695 13.751635 13.499472
LeftLeg 0.044193 -0.000000 -0.000000
LeftFoot -8.403223 3.430586 -26.889789
LeftToeBase 9.207784 -0.000000 -0.000000
Spine -9.412254 -1.742282 0.954446
RightShoulder -22.066899 -14.056703 -27.992167
RightArm 20.588617 28.901986 36.134558
RightForeArm -17.737456 -0.000000 7.953435
RightHand 10.759285 -0.000000 10.931098
RightHandThumb1 -24.326973 -0.000000 -32.862282
LeftShoulder -26.653482 8.437393 30.610876
LeftArm 15.860970 -25.112746 -32.047957
LeftForeArm 27.205076 -0.000000 -1.022265
LeftHand -3.344818 -0.000000 -7.580346
LeftHandThumb1 -26.253704 0.000000 33.147579
Head -4.028259 4.465329 -1.227151
1514
root 1.019639 32.326862 -0.595434 9.236661 -3.755958 0.978944
RightUpLeg -2.135979 -14.510692 -10.303620
RightLeg -3.166516 -0.000000 0.000000
RightFoot -7.684610 -3.296768 11.204035
RightToeBase 6.888859 -0.000000 -0.000000
LeftUpLeg -1.501447 13.709080 13.511912
LeftLeg 0.044767 -0.000000 -0.000000
LeftFoot -8.399025 3.415930 -26.896448
LeftToeBase 9.238424 -0.000000 -0.000000
Spine -9.413291 -1.771537 0.950680
RightShoulder -22.085679 -14.111437 -27.980736
RightArm 20.618104 28.947093 36.152723
RightForeArm -17.751760 -0.000000 7.972659
RightHand 10.780621 -0.000000 10.938191
RightHandThumb1 -24.326973 -0.000000 -32.862282
LeftShoulder -26.640891 8.409425 30.659656
LeftArm 15.852583 -25.113825 -31.978979
LeftForeArm 27.210649 -0.000000 -0.992093
LeftHand -3.349449 -0.000000 -7.586157
LeftHandThumb1 -26.253704 0.000000 33.147579
Head -4.053535 4.413111 -1.185960
1515
root 1.016904 32.326738 -0.599261 9.208545 -3.703910 0.970247
RightUpLeg -2.093204 -14.478934 -10.298180
RightLeg -3.174526 -0.000000 0.000000
RightFoot -7.701308 -3.357084 11.213758
RightToeBase 6.559625 -0.000000 -0.000000
LeftUpLeg -1.497485 13.677402 13.536037
LeftLeg 0.041821 -0.000000 -0.000000
LeftFoot -8.379986 3.396271 -26.896137
LeftToeBase 9.241054 -0.000000 -0.000000
Spine -9.387740 -1.797714 0.947032
RightShoulder -22.106169 -14.113110 -27.965800
RightArm 20.611342 28.936724 36.128620
RightForeArm -17.754772 -0.000000 7.979462
RightHand 10.748620 -0.000000 10.897074
RightHandThumb1 -24.326973 -0.000000 -32.862282
LeftShoulder -26.633150 8.400586 30.684778
LeftArm 15.861200 -25.154697 -31.910024
LeftForeArm 27.188536 0.000000 -0.973930
LeftHand -3.306499 -0.000000 -7.621096
LeftHandThumb1 -26.253704 0.000000 33.147579
Head -4.105452 4.383821 -1.138472
1516
root 1.014312 32.326863 -0.604397 9.196732 -3.645333 0.955522
RightUpLeg -2.075618 -14.484302 -10.261222
RightLeg -3.191199 -0.000000 0.000000
RightFoot -7.707531 -3.481704 11.205860
RightToeBase 6.581933 -0.000000 -0.000000
LeftUpLeg -1.522615 13.639228 13.560961
LeftLeg 0.057978 -0.000000 -0.000000
LeftFoot -8.373885 3.382866 -26.884529
LeftToeBase 9.227886 -0.000000 -0.000000
Spine -9.379051 -1.826150 0.956670
RightShoulder -22.131457 -14.120184 -27.949196
RightArm 20.616270 28.929011 36.106299
RightForeArm -17.781310 -0.000000 7.966017
RightHand 10.779763 -0.000000 10.832389
RightHandThumb1 -24.326973 -0.000000 -32.862282
LeftShoulder -26.615448 8.377299 30.713334
LeftArm 15.847668 -25.178713 -31.840407
LeftForeArm 27.146792 -0.000000 -0.940955
LeftHand -3.340589 0.000000 -7.626295
LeftHandThumb1 -26.253704 0.000000 33.147579
Head -4.163019 4.343189 -1.106135
1517
root 1.012589 32.326807 -0.609741 9.184493 -3.593479 0.948724
RightUpLeg -2.056857 -14.473298 -10.251993
RightLeg -3.180875 -0.000000 0.000000
RightFoot -7.707361 -3.530489 11.247220
RightToeBase 6.890633 -0.000000 -0.000000
LeftUpLeg -1.540292 13.596091 13.578460
LeftLeg 0.058642 -0.000000 -0.000000
LeftFoot -8.359809 3.373294 -26.900704
LeftToeBase 9.192103 -0.000000 -0.000000
Spine -9.374034 -1.851996 0.958584
RightShoulder -22.149519 -14.161528 -27.928099
RightArm 20.630698 28.954644 36.105911
RightForeArm -17.811022 -0.000000 7.989776
RightHand 10.738653 0.000000 10.813901
RightHandThumb1 -24.326973 -0.000000 -32.862282
LeftShoulder -26.599855 8.359544 30.739538
LeftArm 15.844358 -25.183248 -31.765157
LeftForeArm 27.123893 -0.000000 -0.923928
LeftHand -3.354727 0.000000 -7.586248
LeftHandThumb1 -26.253704 0.000000 33.147579
Head -4.198734 4.306230 -1.073140
